<svg width="1858" height="304" viewBox="0 0 1858 304" fill="none" xmlns="http://www.w3.org/2000/svg">
<path d="M268.123 254.817C279.357 272.315 288.52 278.114 307.262 280.236V297.735H214.85L128.237 162.405H106.597V251.089C106.597 274.8 112.861 278.166 139.471 280.236V297.735H0V280.236C26.6621 278.166 32.8746 274.8 32.8746 251.089V52.9095C32.8746 28.7841 27.4387 25.8332 0 23.7623V6.26367H143.665C230.278 6.26367 280.651 23.3482 280.651 83.2991C280.651 128.702 251.918 150.343 204.444 157.798L268.123 254.817ZM119.074 34.5825C111.567 34.5825 106.597 39.6043 106.597 47.0593V134.087H142.422C179.49 134.087 201.545 121.61 201.545 83.2991C201.545 44.5743 179.49 34.5825 143.665 34.5825H119.074Z" fill="black"/>
<path d="M370.985 201.548C370.985 250.679 385.998 276.098 422.6 276.098C446.726 276.098 469.246 259.428 483.794 229.867L506.677 242.757C488.764 279.411 462.568 303.951 414.679 303.951C345.979 303.951 305.184 261.085 305.184 201.548C305.184 142.425 346.808 99.5586 408.001 99.5586C467.952 99.5586 500.827 134.556 500.827 190.728H371.347C370.985 194.455 370.985 198.183 370.985 201.548ZM440.513 164.065C440.513 139.526 428.036 124.512 409.295 124.512C386.412 124.512 376.421 137.817 372.641 164.065H440.513Z" fill="black"/>
<path d="M582.063 303.118C547.946 303.118 525.84 283.962 525.84 255.644C525.84 206.099 588.276 189.428 647.813 178.608V159.039C647.813 133.205 644.085 124.041 625.758 124.041C609.916 124.041 601.219 132.377 594.954 151.946C589.104 169.445 577.456 176.952 562.494 176.952C548.774 176.952 538.783 168.616 538.783 151.118C538.783 120.314 577.922 99.502 632.488 99.502C674.941 99.502 712.009 115.344 712.009 161.938V258.129C712.009 269.363 716.15 273.971 723.243 273.971C726.142 273.971 730.336 273.556 735.306 271.071V292.298C723.657 299.39 711.18 302.704 692.439 302.704C670.799 302.704 653.715 296.439 649.159 276.87C631.608 290.227 607.897 303.118 582.063 303.118ZM647.864 202.785C614.161 209.464 591.641 219.456 591.641 242.338C591.641 257.766 602.047 264.807 614.524 264.807C627.001 264.807 637.821 259.785 647.813 252.744V202.785H647.864Z" fill="black"/>
<path d="M936.437 0H960.148V261.91C960.148 274.387 964.289 278.166 983.445 280.237V297.736C953.883 297.736 925.151 299.392 896.003 304V284.431C883.527 296.907 865.614 304 842.317 304C790.287 304 753.633 264.033 753.633 201.597C753.633 139.575 790.287 99.6077 842.317 99.6077C865.614 99.6077 883.527 107.114 896.003 119.177V63.782C896.003 55.0327 893.104 51.3052 885.597 51.3052H873.12V35.0491L936.437 0ZM896.003 146.564C888.497 134.916 877.262 129.065 863.129 129.065C832.325 129.065 819.434 152.362 819.434 201.493C819.434 250.624 832.325 273.921 863.129 273.921C877.262 273.921 888.548 268.485 896.003 256.837V146.564Z" fill="black"/>
<path d="M1114.22 297.684H1068.81L1014.25 152.363C1007.98 134.45 1004.26 125.286 988.414 123.215V105.717H1098.32V123.215C1078.34 125.286 1074.61 130.722 1082.48 152.363L1109.97 226.499L1138.29 149.878C1132.03 134.036 1127.06 125.338 1115.82 123.215V105.717H1224.08V123.215C1204.09 125.286 1199.07 130.308 1206.99 152.363L1234.07 225.619L1261.56 152.363C1269.48 130.722 1261.56 125.286 1242.4 123.215V105.717H1319.44V123.215C1304.89 125.286 1299.04 133.207 1291.95 152.363L1238.26 297.684H1193.27L1152.89 189.845L1114.22 297.684Z" fill="black"/>
<path d="M1324.88 280.238C1343.62 278.167 1348.17 274.388 1348.17 261.911V163.235C1348.17 154.486 1345.27 150.758 1337.77 150.758H1324.88V134.502L1388.55 99.505H1411.85V261.859C1411.85 274.336 1415.99 278.115 1435.15 280.186V297.685H1324.82V280.238H1324.88ZM1418.58 39.1399C1418.58 56.2243 1404.86 73.257 1381.51 73.257C1357.39 73.257 1344.45 56.1726 1344.45 39.1399C1344.45 21.6412 1357.34 4.14258 1381.51 4.14258C1404.81 4.19435 1418.58 21.6412 1418.58 39.1399Z" fill="black"/>
<path d="M1637.57 235.246C1637.57 278.941 1599.68 303.946 1551.37 303.946C1525.95 303.946 1499.76 294.783 1486.81 286.033L1481.84 297.682H1466L1450.99 229.396L1465.12 225.668C1486.76 261.08 1520.52 279.355 1549.25 279.355C1566.33 279.355 1579.23 271.434 1579.23 256.886C1579.23 240.63 1558.83 234.003 1533.41 226.497C1499.7 216.091 1457.61 202.371 1457.61 161.11C1457.61 124.87 1493.44 99.502 1537.96 99.502C1565.87 99.502 1582.07 107.837 1594.6 116.586L1599.57 105.766H1615L1627.48 166.546L1612.05 171.101C1594.14 139.469 1567.06 122.799 1544.59 122.799C1528.33 122.799 1519.59 130.72 1519.59 141.954C1519.59 156.968 1537.91 163.18 1561.62 170.273C1600.09 182.388 1637.57 195.279 1637.57 235.246Z" fill="black"/>
<path d="M1721.7 201.548C1721.7 250.679 1736.71 276.098 1773.32 276.098C1797.44 276.098 1819.96 259.428 1834.51 229.867L1857.39 242.757C1839.48 279.411 1813.28 303.951 1765.39 303.951C1696.69 303.951 1655.9 261.085 1655.9 201.548C1655.9 142.425 1697.52 99.5586 1758.72 99.5586C1818.67 99.5586 1851.54 134.556 1851.54 190.728H1722.06C1721.7 194.455 1721.7 198.183 1721.7 201.548ZM1791.23 164.065C1791.23 139.526 1778.75 124.512 1760.01 124.512C1737.13 124.512 1727.14 137.817 1723.36 164.065H1791.23Z" fill="black"/>
</svg>
